# xmcd CD database file
#
# Track frame offsets:
#	150
#	22969
#	36214
#
# Disc length: 708 seconds
#
# Revision: 0
# Processed by: cddbd v1.5.2PL0 Copyright (c) Steve Scherf et al.
# Submitted via: CDex 1.70beta2
#
DISCID=1902c203
DTITLE=Jake Shimabukuro - 春よ来い
DYEAR=2007
DGENRE=Jazz
TTITLE0=春よ来い
TTITLE1=サクラサクラ
TTITLE2=花～すべての人の心に花を～
EXTD=YEAR: 2007
EXTT0=
EXTT1=
EXTT2=
PLAYORDER=
